#!OML:ASF E:\acrobat2\Project_11_07_03\Capture day 1\Session 1\Acrobat.ASF
:FULLY-SPECIFIED
:DEGREES
326
root 8.73102 13.0024 -22.0326 40.5577 -12.6366 0.643654
lowerback 30.757 -0.305148 -1.44362
upperback 12.9154 -0.517521 7.54997
thorax -1.97291 -0.669427 8.88898
lowerneck -2.44369 1.86779 2.76303
upperneck -28.2134 0.236799 -9.78254
head -8.26373 0.606336 -3.81805
rclavicle 3.57812e-015 -9.45221e-014
rhumerus 68.3659 16.0323 -57.4803
rradius 42.5392
rwrist 2.2366
rhand -26.0133 -50.0461
rfingers 7.12502
rthumb 0.532896 -80.0252
lclavicle 3.57812e-015 -9.45221e-014
lhumerus 15.5314 -23.3163 40.7372
lradius 89.0357
lwrist 11.8011
lhand 1.51608 -11.9723
lfingers 7.12502
lthumb 27.0417 16.1116
rfemur -109.421 -22.071 38.8201
rtibia 82.3178
rfoot -210.056 -19.224
rtoes -11.422
lfemur -109.516 19.3738 -42.3877
ltibia 80.5586
lfoot -193.279 33.7675
ltoes 29.4882
327
root 8.71154 12.7961 -22.0621 42.5073 -12.9378 0.510429
lowerback 29.2434 0.0719862 -1.96707
upperback 13.0698 -0.175774 7.35983
thorax -1.25733 -0.535468 9.45302
lowerneck -2.96465 1.78423 2.80223
upperneck -28.2198 0.15038 -9.60199
head -8.18147 0.527876 -3.75108
rclavicle -3.63776e-014 -2.45996e-015
rhumerus 69.7487 15.7395 -57.3614
rradius 42.7994
rwrist 2.69343
rhand -26.6748 -50.5549
rfingers 7.12502
rthumb -0.106004 -80.5346
lclavicle -3.63776e-014 -2.45996e-015
lhumerus 17.6968 -22.3676 39.1538
lradius 89.1465
lwrist 10.7232
lhand 4.91059 -11.757
lfingers 7.12502
lthumb 30.2847 15.7783
rfemur -112.7 -20.4583 39.3847
rtibia 79.9197
rfoot -214.807 -3.70164
rtoes -11.4038
lfemur -113.131 18.7818 -43.4963
ltibia 78.1688
lfoot -202.564 23.2132
ltoes 30.7872
328
root 8.68841 12.589 -22.096 44.6636 -13.2682 0.284123
lowerback 27.6954 0.457614 -2.47252
upperback 13.0699 0.164298 7.42034
thorax -0.606498 -0.40875 9.67104
lowerneck -3.48837 1.7077 2.86345
upperneck -28.2192 0.0837374 -9.3875
head -8.09555 0.453964 -3.67782
rclavicle -2.44505e-014 1.6524e-014
rhumerus 71.0161 15.4749 -57.374
rradius 43.0137
rwrist 3.28621
rhand -27.233 -51.0281
rfingers 7.12502
rthumb -0.645121 -81.0068
lclavicle -2.44505e-014 1.6524e-014
lhumerus 19.8858 -21.4054 37.6034
lradius 89.265
lwrist 9.64092
lhand 8.49776 -11.5578
lfingers 7.12502
lthumb 33.7002 15.292
rfemur -116.026 -18.6261 39.9057
rtibia 77.7161
rfoot -216.043 -1.4863
rtoes -11.1995
lfemur -116.916 18.1427 -44.5571
ltibia 75.9852
lfoot -203.066 22.9946
ltoes 31.9834
329
root 8.66532 12.3855 -22.1206 46.6242 -13.5505 0.0313475
lowerback 26.34 0.79334 -2.87997
upperback 13.0752 0.48082 7.42882
thorax -0.0285609 -0.287304 9.7974
lowerneck -3.97846 1.62318 2.91523
upperneck -28.2512 0.0180293 -9.10567
head -8.0283 0.37701 -3.58197
rclavicle 5.96354e-014 6.26793e-014
rhumerus 72.1639 15.2272 -57.4875
rradius 43.2068
rwrist 3.94612
rhand -27.6952 -51.4519
rfingers 7.12502
rthumb -1.09157 -81.4288
lclavicle 5.96354e-014 6.26793e-014
lhumerus 22.0765 -20.4377 36.108
lradius 89.4092
lwrist 8.52883
lhand 12.2442 -11.2793
lfingers 7.12502
lthumb 37.2516 14.7197
rfemur -119.002 -16.955 40.2985
rtibia 75.6026
rfoot -217.052 -0.0793706
rtoes -10.9269
lfemur -120.367 17.5704 -45.4298
ltibia 73.8702
lfoot -203.325 23.054
ltoes 32.9388
330
root 8.64169 12.1858 -22.1362 48.3719 -13.8061 -0.225581
lowerback 25.1987 1.09512 -3.22812
upperback 13.0878 0.778783 7.38169
thorax 0.465446 -0.169199 9.84653
lowerneck -4.4422 1.53285 2.92174
upperneck -28.3028 -0.0359812 -8.72699
head -7.97368 0.303497 -3.44705
rclavicle -2.82274e-014 6.66798e-014
rhumerus 73.2001 14.9801 -57.6846
rradius 43.394
rwrist 4.60226
rhand -28.063 -51.857
rfingers 7.12502
rthumb -1.44675 -81.8318
lclavicle -2.82274e-014 6.66798e-014
lhumerus 24.2827 -19.4633 34.6662
lradius 89.5589
lwrist 7.36514
lhand 16.1137 -10.8381
lfingers 7.12502
lthumb 40.8989 14.1104
rfemur -121.645 -15.4544 40.5659
rtibia 73.5847
rfoot -217.894 0.852807
rtoes -10.68
lfemur -123.489 17.0881 -46.147
ltibia 71.8115
lfoot -203.407 23.2795
ltoes 33.6187
331
root 8.61715 11.9902 -22.1429 49.889 -14.0552 -0.465262
lowerback 24.2949 1.37543 -3.55448
upperback 13.109 1.06174 7.27814
thorax 0.863053 -0.0535795 9.83575
lowerneck -4.87475 1.43739 2.89624
upperneck -28.3708 -0.0809296 -8.27307
head -7.93092 0.232925 -3.28263
rclavicle -2.64384e-014 -7.95139e-015
rhumerus 74.0715 14.7448 -57.9843
rradius 43.6289
rwrist 5.24023
rhand -28.3456 -52.282
rfingers 7.12502
rthumb -1.71974 -82.2548
lclavicle -2.64384e-014 -7.95139e-015
lhumerus 26.4976 -18.4684 33.2886
lradius 89.6982
lwrist 6.16535
lhand 20.0804 -10.1959
lfingers 7.12502
lthumb 44.6099 13.4556
rfemur -123.973 -14.1332 40.7104
rtibia 71.6588
rfoot -218.591 1.51101
rtoes -10.6048
lfemur -126.287 16.7116 -46.7453
ltibia 69.8034
lfoot -203.335 23.6025
ltoes 34.0353
332
root 8.59131 11.7988 -22.1413 51.1541 -14.3171 -0.669726
lowerback 23.6582 1.6461 -3.89773
upperback 13.1391 1.33376 7.12326
thorax 1.14728 0.0602259 9.78962
lowerneck -5.28649 1.34585 2.81593
upperneck -28.439 -0.104364 -7.7541
head -7.89176 0.174774 -3.08825
rclavicle -3.12092e-014 -8.05357e-014
rhumerus 74.8077 14.5262 -58.3613
rradius 43.8911
rwrist 5.8408
rhand -28.5503 -52.76
rfingers 7.12502
rthumb -1.91741 -82.7311
lclavicle -3.12092e-014 -8.05357e-014
lhumerus 28.7005 -17.4328 31.9878
lradius 89.822
lwrist 4.98702
lhand 24.1266 -9.34825
lfingers 7.12502
lthumb 48.3581 12.6957
rfemur -125.996 -12.9969 40.7268
rtibia 69.813
rfoot -219.164 2.03488
rtoes -10.8644
lfemur -128.769 16.4602 -47.2657
ltibia 67.8434
lfoot -203.077 24.0048
ltoes 34.3586
333
root 8.56411 11.6115 -22.1315 52.1424 -14.603 -0.832052
lowerback 23.3151 1.91612 -4.27882
upperback 13.1836 1.5983 6.92447
thorax 1.30861 0.172716 9.72461
lowerneck -5.66772 1.25804 2.66011
upperneck -28.5092 -0.103449 -7.16033
head -7.85836 0.132264 -2.85725
rclavicle 7.35503e-015 4.75055e-014
rhumerus 75.4359 14.326 -58.792
rradius 44.1642
rwrist 6.40605
rhand -28.6847 -53.3346
rfingers 7.12502
rthumb -2.04721 -83.3045
lclavicle 7.35503e-015 4.75055e-014
lhumerus 30.8668 -16.3278 30.7695
lradius 89.9414
lwrist 3.9053
lhand 28.7009 -8.47002
lfingers 7.12502
lthumb 52.5353 11.3122
rfemur -127.716 -12.0511 40.6055
rtibia 68.0182
rfoot -219.639 2.49617
rtoes -11.5565
lfemur -130.948 16.3552 -47.7381
ltibia 65.9201
lfoot -202.637 24.4358
ltoes 34.6759
334
root 8.53586 11.4281 -22.1139 52.8265 -14.9049 -0.961452
lowerback 23.2944 2.1903 -4.68809
upperback 13.2493 1.85767 6.69551
thorax 1.33945 0.28496 9.64638
lowerneck -6.02331 1.18142 2.4472
upperneck -28.5726 -0.0781308 -6.54454
head -7.82625 0.108098 -2.61069
rclavicle -6.95746e-015 5.6607e-014
rhumerus 75.9649 14.1469 -59.258
rradius 44.4415
rwrist 6.97043
rhand -28.7726 -53.9915
rfingers 7.12502
rthumb -2.13211 -83.9606
lclavicle -6.95746e-015 5.6607e-014
lhumerus 32.9638 -15.147 29.6619
lradius 90.0641
lwrist 3.00175
lhand 33.6489 -7.69608
lfingers 7.12502
lthumb 56.9541 8.9281
rfemur -129.123 -11.3035 40.3538
rtibia 66.235
rfoot -220.044 2.90103
rtoes -12.6408
lfemur -132.833 16.4201 -48.1652
ltibia 64.0105
lfoot -202.105 24.8131
ltoes 34.9126
